<?xml version="1.0" encoding="UTF-8" standalone="no"?>
<!-- Created with Inkscape (http://www.inkscape.org/) -->

<svg
   width="256"
   height="256"
   id="svg7090"
   version="1.1"
   inkscape:version="1.4.2 (ebf0e940d0, 2025-05-08)"
   sodipodi:docname="appMenu.svg"
   inkscape:export-filename="appMenu.png"
   inkscape:export-xdpi="96"
   inkscape:export-ydpi="96"
   xmlns:inkscape="http://www.inkscape.org/namespaces/inkscape"
   xmlns:sodipodi="http://sodipodi.sourceforge.net/DTD/sodipodi-0.dtd"
   xmlns:xlink="http://www.w3.org/1999/xlink"
   xmlns="http://www.w3.org/2000/svg"
   xmlns:svg="http://www.w3.org/2000/svg"
   xmlns:rdf="http://www.w3.org/1999/02/22-rdf-syntax-ns#"
   xmlns:cc="http://creativecommons.org/ns#"
   xmlns:dc="http://purl.org/dc/elements/1.1/">
  <defs
     id="defs7092">
    <linearGradient
       id="linearGradient3754">
      <stop
         id="stop3758"
         offset="0"
         style="stop-color:#b1babb;stop-opacity:1" />
      <stop
         id="stop3756"
         offset="1"
         style="stop-color:#2e6099;stop-opacity:1" />
    </linearGradient>
    <inkscape:path-effect
       effect="skeletal"
       id="path-effect7080"
       is_visible="true"
       pattern="m 3.4367048,-8.8024146 c -44.8022348,0 -44.8022348,44.8022346 0,44.8022346 L 180,16 z"
       copytype="single_stretched"
       prop_scale="1"
       scale_y_rel="false"
       spacing="0"
       normal_offset="0"
       tang_offset="0"
       prop_units="false"
       vertical_pattern="false"
       fuse_tolerance="0"
       pattern-nodetypes="cccc" />
    <inkscape:path-effect
       effect="skeletal"
       id="path-effect7080-3"
       is_visible="true"
       pattern="m 3.4367048,-8.8024146 c -44.8022348,0 -44.8022348,44.8022346 0,44.8022346 L 180,16 z"
       copytype="single_stretched"
       prop_scale="1"
       scale_y_rel="false"
       spacing="0"
       normal_offset="0"
       tang_offset="0"
       prop_units="false"
       vertical_pattern="false"
       fuse_tolerance="0"
       pattern-nodetypes="cccc" />
    <radialGradient
       inkscape:collect="always"
       xlink:href="#linearGradient3754"
       id="radialGradient3760"
       cx="-122.59212"
       cy="115.95847"
       fx="-122.59212"
       fy="115.95847"
       r="94.502598"
       gradientTransform="matrix(-1.762222,1.0174194,-0.93876458,-1.625988,-229.76894,429.23315)"
       gradientUnits="userSpaceOnUse" />
  </defs>
  <sodipodi:namedview
     id="base"
     pagecolor="#223356"
     bordercolor="#666666"
     borderopacity="1.0"
     inkscape:pageopacity="0"
     inkscape:pageshadow="2"
     inkscape:zoom="0.98994949"
     inkscape:cx="-55.55839"
     inkscape:cy="124.75384"
     inkscape:document-units="px"
     inkscape:current-layer="layer1"
     showgrid="false"
     inkscape:window-width="1437"
     inkscape:window-height="879"
     inkscape:window-x="311"
     inkscape:window-y="73"
     inkscape:window-maximized="0"
     inkscape:showpageshadow="2"
     inkscape:pagecheckerboard="0"
     inkscape:deskcolor="#d1d1d1" />
  <metadata
     id="metadata7095">
    <rdf:RDF>
      <cc:Work
         rdf:about="">
        <dc:format>image/svg+xml</dc:format>
        <dc:type
           rdf:resource="http://purl.org/dc/dcmitype/StillImage" />
      </cc:Work>
    </rdf:RDF>
  </metadata>
  <g
     inkscape:label="Layer 1"
     inkscape:groupmode="layer"
     id="layer1"
     transform="translate(0,-796.36218)">
    <path
       sodipodi:type="spiral"
       style="fill:none;stroke:#ccdbf9;stroke-width:5.44777055;stroke-linecap:round;stroke-linejoin:round;stroke-miterlimit:4;stroke-opacity:1;stroke-dasharray:none"
       id="path7078-6"
       sodipodi:cx="-130"
       sodipodi:cy="126"
       sodipodi:expansion="1.75"
       sodipodi:revolution="2.5"
       sodipodi:radius="108.16654"
       sodipodi:argument="-34.83136"
       sodipodi:t0="0.38"
       d="m -84.567853,82.446668 c -10.711343,-8.617276 -23.139557,-12.55721 -34.899937,-12.907291 -7.89453,-0.260769 -15.45448,1.310979 -22.22707,4.173018 -8.05819,3.489227 -14.25982,8.714655 -18.68571,14.422587 -8.28338,10.663089 -9.61515,22.243918 -8.24584,30.672568 0,0 1e-5,2e-5 1e-5,2e-5 1.6252,10.95224 8.21334,16.95402 12.52143,19.03077 4.72094,2.27576 7.96277,1.09312 9.55243,-0.80338 1.64454,-1.96197 2.06417,-5.02365 2.80191,-8.09578 0.73563,-3.06338 1.95331,-6.74265 4.06881,-9.20555 0,0 0,0 0,0 1.67522,-2.37103 4.3623,-4.8985 6.84605,-5.6934 1.64737,-0.76189 3.58044,-1.31889 5.2944,-1.3853 1.52164,-0.15343 3.387,-0.005 5.39104,0.34546 3.05067,0.55695 6.69393,2.09504 9.53638,4.36426 0.52331,0.34039 1.01833,0.70736 1.47598,1.09816 2.35379,1.99426 4.36485,4.71698 5.60638,7.64834 1.29169,2.90213 1.90362,6.46662 1.89229,10.14789 0,1e-5 0,1e-5 0,2e-5 -0.0583,7.5743 -3.35387,15.89199 -8.81343,21.6206 0,0 0,0 -1e-5,0 -3.76645,3.99431 -8.61724,7.24344 -13.88917,9.23731 -5.1603,1.99809 -11.06108,2.85412 -17.01915,2.628 -1e-5,0 -1e-5,0 -1e-5,-1e-5 -12.16158,-0.48053 -24.84453,-5.9326 -33.71557,-14.91196 -5.79108,-5.81856 -10.38041,-13.10073 -13.16727,-21.02511 -2.74767,-7.72287 -3.83677,-16.2756 -3.3302,-24.82279 1.04076,-17.399734 9.03277,-35.025468 22.11505,-47.426385 8.15284,-7.76041 18.17636,-13.805857 29.0766,-17.437912 10.60019,-3.549725 22.12873,-4.866633 33.58393,-4.016213 23.299322,1.733352 46.454852,12.646507 62.785428,30.417384 7.313658,7.948296 13.387771,17.151842 17.923605,27.127859 -3.582771,-10.361987 -8.824243,-20.250541 -15.566634,-29.117932 -15.105862,-19.873932 -38.36752,-34.012551 -63.956719,-38.3585 -12.57637,-2.136858 -25.70307,-1.896796 -38.42957,1.055271 -13.12367,3.056318 -25.66901,9.042769 -36.48571,17.553905 -17.6389,13.931388 -29.89657,34.763993 -33.49522,57.733753 -1.77187,11.28617 -1.3844,23.05011 1.44991,34.50136 2.95939,11.83213 8.55934,23.03539 16.44199,32.65277 12.72952,15.4171 31.18459,25.84785 51.56833,28.72046 2e-5,-1e-5 2e-5,0 3e-5,0 10.02155,1.41962 20.45862,0.89069 30.66709,-1.83007 10.57255,-2.86806 20.468184,-8.09538 28.907429,-15.36884 13.239166,-11.52887 21.914507,-27.69469 24.084482,-45.56734 10e-7,-1e-5 3e-6,-2e-5 4e-6,-3e-5 1.081703,-8.80434 0.412381,-17.9747 -2.210597,-26.99902 -2.796274,-9.37261 -7.684233,-18.01702 -14.39234,-25.314963 -1.602513,-1.721764 -3.292129,-3.344807 -5.060831,-4.863989 z"
       transform="matrix(1.2849293,0,0,1.2849293,285.5222,775.36374)"
       inkscape:path-effect="#path-effect7080-3" />
    <path
       sodipodi:type="spiral"
       style="fill:url(#radialGradient3760);fill-opacity:1;stroke:none"
       id="path7078"
       sodipodi:cx="-130"
       sodipodi:cy="126"
       sodipodi:expansion="1.75"
       sodipodi:revolution="2.5"
       sodipodi:radius="108.16654"
       sodipodi:argument="-34.83136"
       sodipodi:t0="0.38"
       d="m -84.567853,82.446668 c -10.711343,-8.617276 -23.139557,-12.55721 -34.899937,-12.907291 -7.89453,-0.260769 -15.45448,1.310979 -22.22707,4.173018 -8.05819,3.489227 -14.25982,8.714655 -18.68571,14.422587 -8.28338,10.663089 -9.61515,22.243918 -8.24584,30.672568 0,0 1e-5,2e-5 1e-5,2e-5 1.6252,10.95224 8.21334,16.95402 12.52143,19.03077 4.72094,2.27576 7.96277,1.09312 9.55243,-0.80338 1.64454,-1.96197 2.06417,-5.02365 2.80191,-8.09578 0.73563,-3.06338 1.95331,-6.74265 4.06881,-9.20555 0,0 0,0 0,0 1.67522,-2.37103 4.3623,-4.8985 6.84605,-5.6934 1.64737,-0.76189 3.58044,-1.31889 5.2944,-1.3853 1.52164,-0.15343 3.387,-0.005 5.39104,0.34546 3.05067,0.55695 6.69393,2.09504 9.53638,4.36426 0.52331,0.34039 1.01833,0.70736 1.47598,1.09816 2.35379,1.99426 4.36485,4.71698 5.60638,7.64834 1.29169,2.90213 1.90362,6.46662 1.89229,10.14789 0,1e-5 0,1e-5 0,2e-5 -0.0583,7.5743 -3.35387,15.89199 -8.81343,21.6206 0,0 0,0 -1e-5,0 -3.76645,3.99431 -8.61724,7.24344 -13.88917,9.23731 -5.1603,1.99809 -11.06108,2.85412 -17.01915,2.628 -1e-5,0 -1e-5,0 -1e-5,-1e-5 -12.16158,-0.48053 -24.84453,-5.9326 -33.71557,-14.91196 -5.79108,-5.81856 -10.38041,-13.10073 -13.16727,-21.02511 -2.74767,-7.72287 -3.83677,-16.2756 -3.3302,-24.82279 1.04076,-17.399734 9.03277,-35.025468 22.11505,-47.426385 8.15284,-7.76041 18.17636,-13.805857 29.0766,-17.437912 10.60019,-3.549725 22.12873,-4.866633 33.58393,-4.016213 23.299322,1.733352 46.454852,12.646507 62.785428,30.417384 7.313658,7.948296 13.387771,17.151842 17.923605,27.127859 -3.582771,-10.361987 -8.824243,-20.250541 -15.566634,-29.117932 -15.105862,-19.873932 -38.36752,-34.012551 -63.956719,-38.3585 -12.57637,-2.136858 -25.70307,-1.896796 -38.42957,1.055271 -13.12367,3.056318 -25.66901,9.042769 -36.48571,17.553905 -17.6389,13.931388 -29.89657,34.763993 -33.49522,57.733753 -1.77187,11.28617 -1.3844,23.05011 1.44991,34.50136 2.95939,11.83213 8.55934,23.03539 16.44199,32.65277 12.72952,15.4171 31.18459,25.84785 51.56833,28.72046 2e-5,-1e-5 2e-5,0 3e-5,0 10.02155,1.41962 20.45862,0.89069 30.66709,-1.83007 10.57255,-2.86806 20.468184,-8.09538 28.907429,-15.36884 13.239166,-11.52887 21.914507,-27.69469 24.084482,-45.56734 10e-7,-1e-5 3e-6,-2e-5 4e-6,-3e-5 1.081703,-8.80434 0.412381,-17.9747 -2.210597,-26.99902 -2.796274,-9.37261 -7.684233,-18.01702 -14.39234,-25.314963 -1.602513,-1.721764 -3.292129,-3.344807 -5.060831,-4.863989 z"
       transform="matrix(1.2849293,0,0,1.2849293,285.5222,775.36374)"
       inkscape:path-effect="#path-effect7080" />
  </g>
</svg>
